<?xml version="1.0" standalone="no"?>
<!DOCTYPE svg PUBLIC "-//W3C//DTD SVG 20010904//EN"
 "http://www.w3.org/TR/2001/REC-SVG-20010904/DTD/svg10.dtd">
<svg version="1.0" xmlns="http://www.w3.org/2000/svg"
 width="320.000000pt" height="320.000000pt" viewBox="0 0 320.000000 320.000000"
 preserveAspectRatio="xMidYMid meet">

<g transform="translate(0.000000,320.000000) scale(0.100000,-0.100000)"
fill="#000000" stroke="none">
<path d="M376 2784 c-9 -22 -7 -56 2 -50 8 5 16 66 8 66 -2 0 -7 -7 -10 -16z"/>
<path d="M3125 2725 c-47 -22 -49 -25 -18 -29 13 -1 14 -11 6 -33 -3 -7 -40
-26 -84 -43 -108 -41 -227 -53 -467 -44 -191 7 -193 6 -217 -16 -15 -14 -27
-39 -31 -67 l-6 -44 -72 6 c-39 3 -204 15 -366 26 -473 32 -670 47 -1192 90
l-138 12 0 51 c0 63 -11 76 -67 76 -41 0 -44 -2 -50 -31 -5 -28 -9 -30 -34
-25 -24 4 -30 2 -34 -17 -15 -70 -95 -619 -95 -653 0 -76 -12 -135 -29 -141
-29 -10 -81 -54 -81 -67 0 -13 40 -36 88 -51 12 -3 22 -10 22 -15 0 -11 57
-23 367 -75 510 -86 1346 -201 1648 -226 77 -6 228 -12 335 -13 221 -1 272 10
424 85 43 21 84 39 91 39 7 0 22 -14 33 -31 l19 -31 5 578 c3 319 2 583 -2
587 -4 5 -11 4 -14 -2 -4 -6 -17 -11 -29 -10 -12 0 -16 3 -10 6 9 3 10 10 3
22 -7 15 -3 21 26 34 28 14 34 22 34 47 0 35 -1 36 -65 5z m-1757 -250 c243
-21 226 -15 218 -78 -4 -29 -13 -57 -19 -64 -9 -9 -61 -7 -232 8 -121 11 -225
21 -232 24 -12 4 -7 77 9 108 11 21 29 21 256 2z m-563 -44 c-6 -5 -25 10 -25
20 0 5 6 4 14 -3 8 -7 12 -15 11 -17z m225 -35 c0 -9 -30 -14 -35 -6 -4 6 3
10 14 10 12 0 21 -2 21 -4z m293 -88 c3 -11 14 -22 25 -25 56 -14 20 -142 -51
-176 -53 -26 -85 -13 -116 47 -21 41 -23 51 -13 85 14 44 54 88 85 93 38 6 65
-3 70 -24z m-268 2 c18 -8 17 -9 -7 -9 -16 -1 -28 4 -28 9 0 12 8 12 35 0z
m85 -10 c0 -13 -30 -13 -50 0 -11 7 -7 10 18 10 17 0 32 -4 32 -10z m37 -6
c-3 -3 -12 -4 -19 -1 -8 3 -5 6 6 6 11 1 17 -2 13 -5z m400 -38 c9 -9 -27 -6
-57 5 -21 7 -18 8 13 5 21 -2 41 -7 44 -10z m-497 -6 c0 -5 -7 -10 -15 -10 -8
0 -15 5 -15 10 0 6 7 10 15 10 8 0 15 -4 15 -10z m45 0 c3 -5 -3 -10 -14 -10
-12 0 -21 5 -21 10 0 6 6 10 14 10 8 0 18 -4 21 -10z m743 3 c-10 -2 -28 -2
-40 0 -13 2 -5 4 17 4 22 1 32 -1 23 -4z m105 -10 c-13 -2 -33 -2 -45 0 -13 2
-3 4 22 4 25 0 35 -2 23 -4z m9 -19 c32 -6 42 -28 27 -56 -10 -19 -17 -20
-102 -14 -94 7 -117 16 -117 45 0 34 22 43 95 36 39 -3 82 -8 97 -11z m91 9
c-13 -2 -35 -2 -50 0 -16 2 -5 4 22 4 28 0 40 -2 28 -4z m100 -10 c-13 -2 -33
-2 -45 0 -13 2 -3 4 22 4 25 0 35 -2 23 -4z m-398 -58 c-4 -25 -9 -44 -12 -41
-2 2 -1 25 2 51 4 25 9 44 12 41 2 -2 1 -25 -2 -51z m488 48 c-13 -2 -33 -2
-45 0 -13 2 -3 4 22 4 25 0 35 -2 23 -4z m-720 -10 c-7 -2 -21 -2 -30 0 -10 3
-4 5 12 5 17 0 24 -2 18 -5z m47 -3 c0 -5 -4 -10 -9 -10 -6 0 -13 5 -16 10 -3
6 1 10 9 10 9 0 16 -4 16 -10z m-476 -10 c-6 -6 -21 -6 -39 -1 -30 9 -30 9 10
10 25 1 36 -2 29 -9z m519 3 c-7 -2 -19 -2 -25 0 -7 3 -2 5 12 5 14 0 19 -2
13 -5z m-75 -48 c2 -2 -10 -3 -27 -3 -18 1 -34 5 -37 10 -5 8 56 2 64 -7z
m-438 -11 c0 -2 -13 -4 -30 -4 -16 0 -30 4 -30 8 0 5 14 7 30 4 17 -2 30 -6
30 -8z m997 3 c10 -11 -30 -8 -47 3 -11 7 -8 8 13 6 15 -1 30 -6 34 -9z m-129
-21 c10 -9 12 -24 8 -41 l-7 -27 -82 7 c-45 4 -94 13 -109 20 -30 15 -39 2
-10 -14 9 -6 12 -11 6 -11 -6 0 -17 6 -23 14 -10 11 -9 22 4 47 l17 32 91 -7
c58 -4 97 -11 105 -20z m222 14 c0 -5 -6 -10 -14 -10 -8 0 -18 5 -21 10 -3 6
3 10 14 10 12 0 21 -4 21 -10z m-1440 -68 c0 -10 -7 -12 -22 -8 -13 3 -31 6
-40 6 -10 0 -18 5 -18 10 0 6 17 10 40 8 27 -1 40 -7 40 -16z m1098 -19 c-10
-2 -26 -2 -35 0 -10 3 -2 5 17 5 19 0 27 -2 18 -5z m95 -10 c-13 -2 -33 -2
-45 0 -13 2 -3 4 22 4 25 0 35 -2 23 -4z m90 -10 c-13 -2 -33 -2 -45 0 -13 2
-3 4 22 4 25 0 35 -2 23 -4z m-833 -13 c0 -5 -9 -10 -20 -10 -11 0 -20 5 -20
10 0 6 9 10 20 10 11 0 20 -4 20 -10z m40 0 c5 8 10 11 10 5 0 -5 15 -10 32
-9 42 1 68 -6 68 -18 0 -6 -11 -7 -27 -3 -16 3 -47 6 -70 5 -35 -1 -43 2 -43
17 0 15 2 16 10 3 9 -13 11 -13 20 0z m883 3 c-13 -2 -33 -2 -45 0 -13 2 -3 4
22 4 25 0 35 -2 23 -4z m85 -10 c-10 -2 -28 -2 -40 0 -13 2 -5 4 17 4 22 1 32
-1 23 -4z m-354 -59 c23 -9 20 -23 -4 -17 -11 3 -20 9 -20 14 0 11 3 11 24 3z"/>
<path d="M1898 2203 c6 -2 18 -2 25 0 6 3 1 5 -13 5 -14 0 -19 -2 -12 -5z"/>
<path d="M1246 2639 c-4 -28 -5 -54 -1 -57 3 -3 5 6 5 19 0 45 16 54 30 17 12
-30 14 -31 17 -10 3 12 -3 29 -11 38 -9 8 -16 22 -16 30 0 8 -4 14 -9 14 -5 0
-11 -23 -15 -51z"/>
<path d="M1301 2664 c0 -11 3 -14 6 -6 3 7 2 16 -1 19 -3 4 -6 -2 -5 -13z"/>
<path d="M1348 2625 c-5 -39 6 -34 16 8 3 15 2 27 -3 27 -5 0 -11 -16 -13 -35z"/>
<path d="M1390 2646 c0 -9 -4 -14 -10 -11 -12 7 -12 -2 -1 -30 7 -17 9 -16 16
13 4 18 4 36 1 39 -3 4 -6 -1 -6 -11z"/>
<path d="M1322 2620 c0 -19 2 -27 5 -17 2 9 2 25 0 35 -3 9 -5 1 -5 -18z"/>
<path d="M1454 2638 c-4 -7 -3 -8 4 -4 7 4 12 1 12 -8 0 -10 -6 -13 -15 -10
-8 4 -15 1 -15 -7 0 -7 3 -9 6 -6 4 3 16 1 27 -5 17 -9 19 -8 14 7 -4 9 -7 23
-7 31 0 17 -16 19 -26 2z"/>
<path d="M1411 2608 c0 -9 -4 -25 -7 -35 -5 -17 -5 -17 6 0 6 10 9 25 7 35 -4
15 -5 15 -6 0z"/>
<path d="M297 1572 c-9 -10 -17 -28 -17 -40 0 -12 -4 -22 -10 -22 -6 0 -10
-107 -10 -300 0 -297 0 -299 23 -321 12 -11 33 -28 47 -37 36 -24 168 -131
175 -142 4 -6 21 -10 40 -10 19 0 175 -32 347 -70 547 -123 715 -160 1068
-230 190 -37 359 -75 375 -84 51 -27 209 -14 244 19 16 15 103 77 191 135 51
35 278 256 351 343 l49 58 0 240 0 239 -47 -34 c-68 -48 -134 -79 -247 -116
l-99 -33 -201 8 c-291 10 -342 16 -338 37 5 28 -25 74 -55 86 -15 6 -138 25
-273 42 -455 58 -1475 217 -1575 246 -13 3 -27 -2 -38 -14z"/>
</g>
</svg>
